<svg width="150" height="30" viewBox="0 0 150 30" fill="none" xmlns="http://www.w3.org/2000/svg">
<path d="M52.906 9.89783H44.4204V14.2411H52.7459V19.1957H44.4204V27.464H39.2971V4.94326H52.906V9.89783Z" fill="#181D31"/>
<path d="M60.1917 9.12569C59.6367 9.68335 58.9642 9.96218 58.1744 9.96218C57.3845 9.96218 56.7014 9.68335 56.125 9.12569C55.57 8.54659 55.2925 7.86024 55.2925 7.06665C55.2925 6.27306 55.57 5.59744 56.125 5.03978C56.7014 4.46068 57.3845 4.17112 58.1744 4.17112C58.9642 4.17112 59.6367 4.46068 60.1917 5.03978C60.7681 5.59744 61.0563 6.27306 61.0563 7.06665C61.0563 7.86024 60.7681 8.54659 60.1917 9.12569ZM55.7728 27.464V11.3778H60.5759V27.464H55.7728Z" fill="#181D31"/>
<path d="M73.4728 16.0106H70.1747V21.7051C70.1747 22.3486 70.4308 22.7561 70.9432 22.9277C71.4555 23.0993 72.2987 23.1529 73.4728 23.0886V27.464C70.4202 27.7857 68.3068 27.4962 67.1327 26.5954C65.9586 25.6731 65.3716 24.043 65.3716 21.7051V16.0106H62.8099V11.3778H65.3716V8.32138L70.1747 6.87361V11.3778H73.4728V16.0106Z" fill="#181D31"/>
<path d="M84.1975 27.9144C81.9134 27.9144 80.0028 27.4211 78.4658 26.4345C76.9502 25.4264 75.8721 24.0645 75.2317 22.3486L79.6506 19.7748C80.5472 21.8553 82.1162 22.8955 84.3576 22.8955C86.3856 22.8955 87.3996 22.2842 87.3996 21.0617C87.3996 20.3968 87.0687 19.882 86.407 19.5174C85.7665 19.1313 84.5498 18.6917 82.7566 18.1983C81.8173 17.941 80.9954 17.6514 80.291 17.3297C79.5865 17.008 78.8927 16.5897 78.2096 16.075C77.5479 15.5387 77.0355 14.8738 76.6726 14.0803C76.3311 13.2867 76.1603 12.3751 76.1603 11.3456C76.1603 9.2651 76.8968 7.60286 78.3697 6.35885C79.864 5.11485 81.6359 4.49285 83.6852 4.49285C85.521 4.49285 87.1434 4.93254 88.5524 5.81192C89.9613 6.66986 91.0713 7.92458 91.8825 9.5761L87.5597 12.1177C87.1541 11.2598 86.6524 10.6164 86.0547 10.1874C85.457 9.73697 84.6672 9.51176 83.6852 9.51176C82.9167 9.51176 82.319 9.68335 81.892 10.0265C81.4864 10.3482 81.2836 10.745 81.2836 11.2169C81.2836 11.7746 81.5398 12.2571 82.0521 12.6647C82.5858 13.0722 83.6745 13.5226 85.3182 14.0159C86.2148 14.2947 86.9086 14.5199 87.3996 14.6915C87.8906 14.8631 88.5097 15.1527 89.2568 15.5602C90.0253 15.9463 90.6017 16.3645 90.9859 16.8149C91.3915 17.2439 91.7438 17.823 92.0426 18.5522C92.3628 19.26 92.5229 20.0751 92.5229 20.9973C92.5229 23.1422 91.7544 24.8366 90.2174 26.0806C88.6804 27.3032 86.6738 27.9144 84.1975 27.9144Z" fill="#181D31"/>
<path d="M103.836 16.0106H100.538V21.7051C100.538 22.3486 100.794 22.7561 101.307 22.9277C101.819 23.0993 102.662 23.1529 103.836 23.0886V27.464C100.784 27.7857 98.6703 27.4962 97.4962 26.5954C96.3221 25.6731 95.735 24.043 95.735 21.7051V16.0106H93.1733V11.3778H95.735V8.32138L100.538 6.87361V11.3778H103.836V16.0106Z" fill="#181D31"/>
<path d="M117.867 11.3778H122.67V27.464H117.867V25.9519C116.735 27.2603 115.145 27.9144 113.096 27.9144C110.982 27.9144 109.178 27.0994 107.684 25.4693C106.19 23.8178 105.443 21.8017 105.443 19.4209C105.443 17.0401 106.19 15.0347 107.684 13.4046C109.178 11.7531 110.982 10.9274 113.096 10.9274C115.145 10.9274 116.735 11.5815 117.867 12.8899V11.3778ZM111.302 22.2842C112.007 22.992 112.925 23.3459 114.056 23.3459C115.188 23.3459 116.105 22.992 116.81 22.2842C117.514 21.5765 117.867 20.622 117.867 19.4209C117.867 18.2198 117.514 17.2653 116.81 16.5575C116.105 15.8497 115.188 15.4958 114.056 15.4958C112.925 15.4958 112.007 15.8497 111.302 16.5575C110.598 17.2653 110.246 18.2198 110.246 19.4209C110.246 20.622 110.598 21.5765 111.302 22.2842Z" fill="#181D31"/>
<path d="M130.997 14.2411C131.296 13.2116 131.893 12.4287 132.79 11.8925C133.708 11.3349 134.711 11.056 135.8 11.056V16.5254C134.626 16.3323 133.526 16.5361 132.502 17.1366C131.498 17.7158 130.997 18.7345 130.997 20.193V27.464H126.194V11.3778H130.997V14.2411Z" fill="#181D31"/>
<path d="M142.123 16.075C142.123 16.3967 142.39 16.6648 142.923 16.8793C143.478 17.0723 144.14 17.2761 144.909 17.4905C145.677 17.6836 146.446 17.941 147.214 18.2627C147.983 18.5844 148.634 19.1206 149.167 19.8713C149.722 20.6006 150 21.5228 150 22.6381C150 24.3755 149.36 25.6945 148.079 26.5954C146.798 27.4747 145.218 27.9144 143.34 27.9144C139.967 27.9144 137.672 26.6383 136.455 24.0859L140.618 21.7051C141.045 22.9706 141.952 23.6033 143.34 23.6033C144.492 23.6033 145.069 23.2709 145.069 22.606C145.069 22.2842 144.791 22.0161 144.236 21.8017C143.703 21.5872 143.051 21.3834 142.283 21.1904C141.514 20.9759 140.746 20.7078 139.977 20.3861C139.209 20.0429 138.547 19.5174 137.992 18.8096C137.459 18.1018 137.192 17.2332 137.192 16.2036C137.192 14.5307 137.789 13.233 138.985 12.3108C140.202 11.3885 141.696 10.9274 143.468 10.9274C144.791 10.9274 145.997 11.2276 147.086 11.8282C148.175 12.4073 149.05 13.2545 149.712 14.3698L145.613 16.5897C145.101 15.646 144.386 15.1741 143.468 15.1741C142.571 15.1741 142.123 15.4744 142.123 16.075Z" fill="#181D31"/>
<path d="M19.4113 8.307L17.4091 1.32341C16.9034 -0.441138 14.4065 -0.441135 13.9008 1.32341L11.8625 8.307H19.4113Z" fill="#EF16B0"/>
<path d="M29.4177 10.0603L21.4311 10.3378H9.87885L1.89225 10.0603C0.060131 9.99662 -0.711476 12.3747 0.808102 13.4016L7.43228 17.878C8.12654 18.3472 8.41278 19.2294 8.12649 20.0176L5.39495 27.5381C4.76833 29.2633 6.78843 30.7331 8.23328 29.6032L14.5317 24.6777C15.1918 24.1615 16.1181 24.1615 16.7782 24.6777L23.0766 29.6032C24.5215 30.7331 26.5416 29.2633 25.915 27.5381L23.1834 20.0176C22.8971 19.2294 23.1834 18.3472 23.8776 17.878L30.5018 13.4016C32.0214 12.3747 31.2498 9.99662 29.4177 10.0603Z" fill="#EF16B0"/>
</svg>